<mxfile host="app.diagrams.net" modified="2021-11-24T11:15:00.414Z" agent="5.0 (Windows NT 10.0; Win64; x64) AppleWebKit/537.36 (KHTML, like Gecko) Chrome/96.0.4664.45 Safari/537.36" etag="d793o7B1ysVTCRGQPewv" version="15.8.3" type="github">
  <diagram id="nE9YG6T-W__8RFTaY4J8" name="Page-1">
    <mxGraphModel dx="1038" dy="579" grid="1" gridSize="10" guides="1" tooltips="1" connect="1" arrows="1" fold="1" page="1" pageScale="1" pageWidth="850" pageHeight="1100" math="0" shadow="0">
      <root>
        <mxCell id="0" />
        <mxCell id="1" parent="0" />
        <mxCell id="oQooVXdh6xednzNfwwww-4" style="edgeStyle=orthogonalEdgeStyle;rounded=0;orthogonalLoop=1;jettySize=auto;html=1;exitX=0.25;exitY=1;exitDx=0;exitDy=0;entryX=0.5;entryY=0;entryDx=0;entryDy=0;" edge="1" parent="1" source="oQooVXdh6xednzNfwwww-1" target="oQooVXdh6xednzNfwwww-2">
          <mxGeometry relative="1" as="geometry">
            <Array as="points">
              <mxPoint x="410" y="110" />
              <mxPoint x="410" y="135" />
              <mxPoint x="120" y="135" />
            </Array>
          </mxGeometry>
        </mxCell>
        <mxCell id="oQooVXdh6xednzNfwwww-7" style="edgeStyle=orthogonalEdgeStyle;rounded=0;orthogonalLoop=1;jettySize=auto;html=1;exitX=0.5;exitY=1;exitDx=0;exitDy=0;" edge="1" parent="1" source="oQooVXdh6xednzNfwwww-1" target="oQooVXdh6xednzNfwwww-6">
          <mxGeometry relative="1" as="geometry" />
        </mxCell>
        <mxCell id="oQooVXdh6xednzNfwwww-8" style="edgeStyle=orthogonalEdgeStyle;rounded=0;orthogonalLoop=1;jettySize=auto;html=1;exitX=0.5;exitY=1;exitDx=0;exitDy=0;entryX=0.5;entryY=0;entryDx=0;entryDy=0;" edge="1" parent="1" source="oQooVXdh6xednzNfwwww-1" target="oQooVXdh6xednzNfwwww-5">
          <mxGeometry relative="1" as="geometry" />
        </mxCell>
        <mxCell id="oQooVXdh6xednzNfwwww-1" value="Cycling" style="whiteSpace=wrap;html=1;aspect=fixed;" vertex="1" parent="1">
          <mxGeometry x="370" y="30" width="80" height="80" as="geometry" />
        </mxCell>
        <mxCell id="oQooVXdh6xednzNfwwww-15" value="" style="edgeStyle=orthogonalEdgeStyle;rounded=0;orthogonalLoop=1;jettySize=auto;html=1;" edge="1" parent="1" source="oQooVXdh6xednzNfwwww-2" target="oQooVXdh6xednzNfwwww-14">
          <mxGeometry relative="1" as="geometry" />
        </mxCell>
        <mxCell id="oQooVXdh6xednzNfwwww-2" value="Input" style="whiteSpace=wrap;html=1;aspect=fixed;" vertex="1" parent="1">
          <mxGeometry x="80" y="160" width="80" height="80" as="geometry" />
        </mxCell>
        <mxCell id="oQooVXdh6xednzNfwwww-26" style="edgeStyle=orthogonalEdgeStyle;rounded=0;orthogonalLoop=1;jettySize=auto;html=1;exitX=0.5;exitY=1;exitDx=0;exitDy=0;entryX=0.5;entryY=0;entryDx=0;entryDy=0;" edge="1" parent="1" source="oQooVXdh6xednzNfwwww-5" target="oQooVXdh6xednzNfwwww-24">
          <mxGeometry relative="1" as="geometry" />
        </mxCell>
        <mxCell id="oQooVXdh6xednzNfwwww-29" style="edgeStyle=orthogonalEdgeStyle;rounded=0;orthogonalLoop=1;jettySize=auto;html=1;exitX=0.5;exitY=1;exitDx=0;exitDy=0;entryX=0.5;entryY=0;entryDx=0;entryDy=0;" edge="1" parent="1" source="oQooVXdh6xednzNfwwww-5" target="oQooVXdh6xednzNfwwww-27">
          <mxGeometry relative="1" as="geometry" />
        </mxCell>
        <mxCell id="oQooVXdh6xednzNfwwww-5" value="Compute" style="whiteSpace=wrap;html=1;aspect=fixed;" vertex="1" parent="1">
          <mxGeometry x="370" y="160" width="80" height="80" as="geometry" />
        </mxCell>
        <mxCell id="oQooVXdh6xednzNfwwww-32" value="" style="edgeStyle=orthogonalEdgeStyle;rounded=0;orthogonalLoop=1;jettySize=auto;html=1;" edge="1" parent="1" source="oQooVXdh6xednzNfwwww-6" target="oQooVXdh6xednzNfwwww-31">
          <mxGeometry relative="1" as="geometry" />
        </mxCell>
        <mxCell id="oQooVXdh6xednzNfwwww-6" value="Output" style="whiteSpace=wrap;html=1;aspect=fixed;" vertex="1" parent="1">
          <mxGeometry x="670" y="160" width="80" height="80" as="geometry" />
        </mxCell>
        <mxCell id="oQooVXdh6xednzNfwwww-21" style="edgeStyle=orthogonalEdgeStyle;rounded=0;orthogonalLoop=1;jettySize=auto;html=1;exitX=0;exitY=0.5;exitDx=0;exitDy=0;entryX=0;entryY=0.5;entryDx=0;entryDy=0;" edge="1" parent="1" source="oQooVXdh6xednzNfwwww-14" target="oQooVXdh6xednzNfwwww-19">
          <mxGeometry relative="1" as="geometry" />
        </mxCell>
        <mxCell id="oQooVXdh6xednzNfwwww-22" style="edgeStyle=orthogonalEdgeStyle;rounded=0;orthogonalLoop=1;jettySize=auto;html=1;exitX=0;exitY=0.5;exitDx=0;exitDy=0;entryX=0;entryY=0.5;entryDx=0;entryDy=0;" edge="1" parent="1" source="oQooVXdh6xednzNfwwww-14" target="oQooVXdh6xednzNfwwww-20">
          <mxGeometry relative="1" as="geometry" />
        </mxCell>
        <mxCell id="oQooVXdh6xednzNfwwww-14" value="Read data from CSV file" style="whiteSpace=wrap;html=1;" vertex="1" parent="1">
          <mxGeometry x="60" y="280" width="120" height="70" as="geometry" />
        </mxCell>
        <mxCell id="oQooVXdh6xednzNfwwww-19" value="Names" style="rounded=0;whiteSpace=wrap;html=1;" vertex="1" parent="1">
          <mxGeometry x="60" y="400" width="120" height="60" as="geometry" />
        </mxCell>
        <mxCell id="oQooVXdh6xednzNfwwww-20" value="Distances" style="rounded=0;whiteSpace=wrap;html=1;" vertex="1" parent="1">
          <mxGeometry x="60" y="490" width="120" height="60" as="geometry" />
        </mxCell>
        <mxCell id="oQooVXdh6xednzNfwwww-23" value="Total Distance" style="rounded=0;whiteSpace=wrap;html=1;" vertex="1" parent="1">
          <mxGeometry x="270" y="360" width="120" height="60" as="geometry" />
        </mxCell>
        <mxCell id="oQooVXdh6xednzNfwwww-36" value="" style="edgeStyle=orthogonalEdgeStyle;rounded=0;orthogonalLoop=1;jettySize=auto;html=1;" edge="1" parent="1" source="oQooVXdh6xednzNfwwww-24" target="oQooVXdh6xednzNfwwww-35">
          <mxGeometry relative="1" as="geometry" />
        </mxCell>
        <mxCell id="oQooVXdh6xednzNfwwww-24" value="Farthest Distance" style="rounded=0;whiteSpace=wrap;html=1;" vertex="1" parent="1">
          <mxGeometry x="425" y="280" width="120" height="60" as="geometry" />
        </mxCell>
        <mxCell id="oQooVXdh6xednzNfwwww-30" style="edgeStyle=orthogonalEdgeStyle;rounded=0;orthogonalLoop=1;jettySize=auto;html=1;exitX=0;exitY=0.5;exitDx=0;exitDy=0;entryX=0;entryY=0.5;entryDx=0;entryDy=0;" edge="1" parent="1" source="oQooVXdh6xednzNfwwww-27" target="oQooVXdh6xednzNfwwww-23">
          <mxGeometry relative="1" as="geometry" />
        </mxCell>
        <mxCell id="oQooVXdh6xednzNfwwww-27" value="Average Distance" style="rounded=0;whiteSpace=wrap;html=1;" vertex="1" parent="1">
          <mxGeometry x="270" y="280" width="120" height="60" as="geometry" />
        </mxCell>
        <mxCell id="oQooVXdh6xednzNfwwww-31" value="See Below" style="rounded=0;whiteSpace=wrap;html=1;" vertex="1" parent="1">
          <mxGeometry x="650" y="280" width="120" height="60" as="geometry" />
        </mxCell>
        <mxCell id="oQooVXdh6xednzNfwwww-35" value="Name&lt;br&gt;Distance" style="whiteSpace=wrap;html=1;rounded=0;" vertex="1" parent="1">
          <mxGeometry x="425" y="360" width="120" height="60" as="geometry" />
        </mxCell>
        <mxCell id="oQooVXdh6xednzNfwwww-40" style="edgeStyle=orthogonalEdgeStyle;rounded=0;orthogonalLoop=1;jettySize=auto;html=1;exitX=0.5;exitY=1;exitDx=0;exitDy=0;entryX=0.5;entryY=0;entryDx=0;entryDy=0;" edge="1" parent="1" source="oQooVXdh6xednzNfwwww-37" target="oQooVXdh6xednzNfwwww-38">
          <mxGeometry relative="1" as="geometry" />
        </mxCell>
        <mxCell id="oQooVXdh6xednzNfwwww-37" value="Cycling" style="whiteSpace=wrap;html=1;aspect=fixed;" vertex="1" parent="1">
          <mxGeometry x="390" y="600" width="80" height="80" as="geometry" />
        </mxCell>
        <mxCell id="oQooVXdh6xednzNfwwww-50" style="edgeStyle=orthogonalEdgeStyle;rounded=0;orthogonalLoop=1;jettySize=auto;html=1;exitX=0.5;exitY=1;exitDx=0;exitDy=0;entryX=0.5;entryY=0;entryDx=0;entryDy=0;" edge="1" parent="1" source="oQooVXdh6xednzNfwwww-38" target="oQooVXdh6xednzNfwwww-41">
          <mxGeometry relative="1" as="geometry" />
        </mxCell>
        <mxCell id="oQooVXdh6xednzNfwwww-51" style="edgeStyle=orthogonalEdgeStyle;rounded=0;orthogonalLoop=1;jettySize=auto;html=1;exitX=0.5;exitY=1;exitDx=0;exitDy=0;entryX=0.5;entryY=0;entryDx=0;entryDy=0;" edge="1" parent="1" source="oQooVXdh6xednzNfwwww-38" target="oQooVXdh6xednzNfwwww-42">
          <mxGeometry relative="1" as="geometry" />
        </mxCell>
        <mxCell id="oQooVXdh6xednzNfwwww-52" style="edgeStyle=orthogonalEdgeStyle;rounded=0;orthogonalLoop=1;jettySize=auto;html=1;exitX=0.5;exitY=1;exitDx=0;exitDy=0;" edge="1" parent="1" source="oQooVXdh6xednzNfwwww-38" target="oQooVXdh6xednzNfwwww-43">
          <mxGeometry relative="1" as="geometry" />
        </mxCell>
        <mxCell id="oQooVXdh6xednzNfwwww-53" style="edgeStyle=orthogonalEdgeStyle;rounded=0;orthogonalLoop=1;jettySize=auto;html=1;exitX=0.5;exitY=1;exitDx=0;exitDy=0;" edge="1" parent="1" source="oQooVXdh6xednzNfwwww-38" target="oQooVXdh6xednzNfwwww-44">
          <mxGeometry relative="1" as="geometry" />
        </mxCell>
        <mxCell id="oQooVXdh6xednzNfwwww-38" value="Output" style="whiteSpace=wrap;html=1;aspect=fixed;" vertex="1" parent="1">
          <mxGeometry x="390" y="710" width="80" height="80" as="geometry" />
        </mxCell>
        <mxCell id="oQooVXdh6xednzNfwwww-46" value="" style="edgeStyle=orthogonalEdgeStyle;rounded=0;orthogonalLoop=1;jettySize=auto;html=1;" edge="1" parent="1" source="oQooVXdh6xednzNfwwww-41" target="oQooVXdh6xednzNfwwww-45">
          <mxGeometry relative="1" as="geometry" />
        </mxCell>
        <mxCell id="oQooVXdh6xednzNfwwww-41" value="For All" style="rounded=0;whiteSpace=wrap;html=1;" vertex="1" parent="1">
          <mxGeometry x="230" y="840" width="120" height="60" as="geometry" />
        </mxCell>
        <mxCell id="oQooVXdh6xednzNfwwww-42" value="Total Distance" style="rounded=0;whiteSpace=wrap;html=1;" vertex="1" parent="1">
          <mxGeometry x="370" y="840" width="120" height="60" as="geometry" />
        </mxCell>
        <mxCell id="oQooVXdh6xednzNfwwww-43" value="Average Distance" style="rounded=0;whiteSpace=wrap;html=1;" vertex="1" parent="1">
          <mxGeometry x="510" y="840" width="120" height="60" as="geometry" />
        </mxCell>
        <mxCell id="oQooVXdh6xednzNfwwww-49" value="" style="edgeStyle=orthogonalEdgeStyle;rounded=0;orthogonalLoop=1;jettySize=auto;html=1;" edge="1" parent="1" source="oQooVXdh6xednzNfwwww-44" target="oQooVXdh6xednzNfwwww-48">
          <mxGeometry relative="1" as="geometry" />
        </mxCell>
        <mxCell id="oQooVXdh6xednzNfwwww-44" value="Furthest Distance" style="rounded=0;whiteSpace=wrap;html=1;" vertex="1" parent="1">
          <mxGeometry x="650" y="840" width="120" height="60" as="geometry" />
        </mxCell>
        <mxCell id="oQooVXdh6xednzNfwwww-45" value="Name&lt;br&gt;Distance" style="whiteSpace=wrap;html=1;rounded=0;" vertex="1" parent="1">
          <mxGeometry x="230" y="930" width="120" height="60" as="geometry" />
        </mxCell>
        <mxCell id="oQooVXdh6xednzNfwwww-48" value="Name&lt;br&gt;Distance" style="whiteSpace=wrap;html=1;rounded=0;" vertex="1" parent="1">
          <mxGeometry x="650" y="930" width="120" height="60" as="geometry" />
        </mxCell>
      </root>
    </mxGraphModel>
  </diagram>
</mxfile>
